PathFileType	4	(X/Y/Z)	RBDS013\RBDS013runT25.trc
DataRate	CameraRate	NumFrames	NumMarkers	Units	OrigDataRate	OrigDataStartFrame	OrigNumFrames
150.000000	150.000000	4	33	mm	150.000000	3937	4500
Frame#	Time	L.ASIS			L.Heel.Bottom			L.Heel.Lateral			L.Heel.Top			L.Iliac.Crest			L.MT1			L.MT5			L.PSIS			L.Shank.Bottom.Lateral			L.Shank.Bottom.Medial			L.Shank.Top.Lateral			L.Shank.Top.Medial			L.Thigh.Bottom.Lateral			L.Thigh.Bottom.Medial			L.Thigh.Top.Lateral			L.Thigh.Top.Medial			R.ASIS			R.ASY			R.Heel.Bottom			R.Heel.Lateral			R.Heel.Top			R.Iliac.Crest			R.MT1			R.MT5			R.PSIS			R.Shank.Bottom.Lateral			R.Shank.Bottom.Medial			R.Shank.Top.Lateral			R.Shank.Top.Medial			R.Thigh.Bottom.Lateral			R.Thigh.Bottom.Medial			R.Thigh.Top.Lateral			R.Thigh.Top.Medial			
		X1	Y1	Z1	X2	Y2	Z2	X3	Y3	Z3	X4	Y4	Z4	X5	Y5	Z5	X6	Y6	Z6	X7	Y7	Z7	X8	Y8	Z8	X9	Y9	Z9	X10	Y10	Z10	X11	Y11	Z11	X12	Y12	Z12	X13	Y13	Z13	X14	Y14	Z14	X15	Y15	Z15	X16	Y16	Z16	X17	Y17	Z17	X18	Y18	Z18	X19	Y19	Z19	X20	Y20	Z20	X21	Y21	Z21	X22	Y22	Z22	X23	Y23	Z23	X24	Y24	Z24	X25	Y25	Z25	X26	Y26	Z26	X27	Y27	Z27	X28	Y28	Z28	X29	Y29	Z29	X30	Y30	Z30	X31	Y31	Z31	X32	Y32	Z32	X33	Y33	Z33	

3938	26.24666666666667	2208.700059455018	879.9360492678455	901.016585512867	1864.603411736392	49.97277717725498	1015.546809104057	1890.15563133414	68.71572554503061	972.4597180720132	1880.020361985386	95.31477316904515	1013.206747753098	2154.032626776882	945.7930673120254	875.6487107615641	2074.215010724978	47.69355769214567	1046.916171286685	2039.662155336402	34.63436382534516	938.4495365800632	2058.097449008993	928.8193124432165	985.9941425212356	1981.352031586556	161.6485195278192	948.8280130554227	1943.130114813169	188.00482422591	979.5463211258711	2012.616943660754	233.0380890025155	927.8953233049244	1977.129909893402	259.1023067172695	959.4020503432064	2170.775235795071	528.8355911010717	881.4096814621037	2102.118386332003	527.5635443365427	906.2104584533323	2157.934162873162	636.3219763549016	859.7305133891188	2093.548461441481	635.6850007955001	884.0208837587833	2229.996376860202	876.4085764375349	1138.501543111513	1987.712503582742	260.7546842313313	1086.44485045208	1871.802922140776	413.1268845259946	1088.971840390667	1899.395900879694	395.3725518953591	1127.760138195262	1922.354532718207	421.652554277802	1088.617451017931	2180.581432177627	936.1902673191506	1176.544044756205	1958.318552175674	228.6648632788095	1038.9294187387	1941.794923809504	242.6983431654517	1146.813091786016	2063.180677833377	924.5203035474763	1082.937342350832	2015.084765695803	391.1530503276063	1142.174944895109	2007.263797186109	430.5905113688	1109.920878788974	2092.649988412397	421.9524466380079	1157.716805293123	2080.665438284479	461.3782424690963	1123.737474298222	2275.467951640296	579.6030869578971	1195.426240469129	2221.983830288121	547.9776916096112	1155.294646417561	2214.040600271338	670.165972570889	1199.747963052229	2162.426785640258	640.1474577115371	1163.452983520015	
3939	26.25333333333333	2208.920640804826	883.9814032451312	901.1638230599469	1848.845274587628	55.30094067877417	1015.012313866466	1874.825886116001	72.86202116064449	971.7451433249586	1865.37087226464	100.1688381390919	1012.186464740062	2156.193828216482	950.552583786167	876.0053663377328	2057.214247240016	47.76994665833905	1046.54454582688	2022.72275957208	34.68894460689918	938.433135140898	2058.6588749367	933.9164021435145	986.0203411389975	1966.400003521753	166.1407931486054	948.319902130318	1928.195907694778	192.431731479059	979.1425870411138	1997.629295167015	237.5601269736746	927.4088313086954	1962.189113831595	263.5625676009491	959.0664527683472	2159.642521775769	532.3735220330904	882.0330880129435	2091.287843517239	533.5151977703753	907.5377505983759	2150.427249751455	640.2310895360217	860.4741748327871	2086.324506871681	641.8425271873089	885.3570376734608	2230.196288108943	881.3811468210115	1138.079331622773	2006.639120555284	250.1548957548748	1085.937733706564	1881.496176130637	395.0533578278057	1088.511273447525	1910.128698721662	378.9809734636122	1127.133051588205	1931.379157903833	406.7182556089396	1088.143407249474	2181.426231105801	941.3981629809101	1176.645073963023	1979.396898681012	216.3456169469024	1038.410377956316	1961.868150017322	229.2505972792283	1146.144480549809	2063.557811390891	930.0644342622752	1083.243978893071	2026.014769841545	381.8574606783657	1141.574514109977	2015.677678339927	420.7642921019066	1109.481194160161	2101.50218017584	417.3128550887591	1157.166746802077	2087.068365627647	455.9910697222174	1123.323391235927	2280.929122714435	587.7242150277493	1195.285908037563	2227.848299285969	555.0607057056318	1155.211680326212	2217.270934270416	676.6544367367761	1200.362769870201	2166.083767497309	645.5144948165818	1164.31469793271	
3940	26.26	2209.438534273048	888.2023026121454	901.3022068863764	1833.608431747724	61.51406849148523	1014.411069377444	1860.081188346102	77.76693467044153	970.9979752049637	1851.396949694638	105.7821039881951	1011.136365119388	2158.785722289472	955.4882941523633	876.4012345612941	2040.460069044841	47.8799818321251	1046.064718739633	2006.000863079292	34.83384025863058	938.3724946865497	2059.463612407606	939.3149331508694	986.0808127881164	1951.907176196386	171.2962363812498	947.7707396358949	1913.780328353288	197.4156482240074	978.8359033650979	1982.929554290881	242.8189746979234	926.9290158067846	1947.601760199099	268.6502318878048	958.8731587269189	2148.607735089697	536.6111747271167	882.6569599751866	2080.678417777627	540.2223908497433	908.9655307491954	2143.089963026892	644.7179655746296	861.2021335621722	2079.384321447203	648.6153433146968	886.7575512026709	2230.620049550942	886.6290839177465	1137.604435316397	2026.231305447804	239.5221123102123	1085.608292561912	1892.041193349145	376.1075314420204	1087.65764846206	1921.585787296112	361.932163919454	1126.220529368697	1941.040084369281	390.9689847843128	1087.320665894782	2182.563078821314	946.9795142384755	1176.775819318485	2001.378568251535	203.973294774656	1038.133510050151	1982.746756799599	215.9031760764716	1145.642931386006	2064.17294789675	935.9501997355103	1083.667147681832	2037.20679359406	372.1520480627921	1140.822489511717	2024.350420794967	410.3018105296479	1108.795261300658	2110.250241820414	412.314994486181	1156.468789111477	2093.364138272113	450.0143920254185	1122.693823539403	2285.966881610349	596.0486498924516	1195.135333764432	2233.22514669949	562.4431129736508	1155.187842990573	2220.322187767106	683.4408005115635	1201.016373549174	2169.521258815921	651.29587877483	1165.258304765563	
3941	26.26666666666667	2210.25793701854	892.5300587218841	901.4657016387106	1818.992238766944	68.6120714083242	1013.742562047511	1846.01207856533	83.44561922829806	970.2242109448797	1838.187541923476	112.1451756159219	1010.075826466162	2161.76495411315	960.5857621681017	876.8498471138828	2024.04725132101	48.02779478607437	1045.500656825714	1989.571007331432	35.10767209954444	938.2567554233621	2060.502835776923	944.9572998598709	986.1685304347224	1937.945209178762	177.0577386084774	947.1723902120871	1899.97913924273	202.900737220566	978.6383574577726	1968.602388128989	248.7559575832233	926.4615323474155	1933.475531080766	274.3068996301041	958.8441215585586	2137.775459690973	541.5008939136702	883.2282114125411	2070.376452513424	547.6011682856762	910.3896273616841	2135.995506555168	649.7353045898925	861.8733086192655	2072.790674558691	655.9259286487837	888.1495695338784	2231.237172072164	892.1077185737315	1137.130299673522	2046.500240066084	228.9553439501911	1085.488192291238	1903.586538391205	356.4083732565617	1086.414587422489	1933.873663445687	344.3229536615339	1125.034618813717	1951.474590203974	374.4888009488179	1086.154065921765	2183.888289754691	952.9130715584535	1176.941569386077	2024.283502638341	191.6921274169394	1038.131353901257	2004.416103657107	202.7805074240272	1145.345281030776	2065.00327218303	942.1043891470168	1084.186760094961	2048.723009367845	362.0752597427142	1139.925256656941	2033.396749207996	399.2380723286295	1107.854832511163	2118.949968479615	406.9379237304697	1155.620843934213	2099.661342009529	443.4177778749929	1121.826184316018	2290.568100230678	604.4317172473523	1194.979637025237	2238.101984730874	569.9672203647722	1155.242494437379	2223.207545373036	690.4200575960766	1201.675345204906	2172.737646681996	657.3856784937425	1166.264460326304	
